<svg width="185" height="52" viewBox="0 0 185 52" fill="none" xmlns="http://www.w3.org/2000/svg">
<path d="M178.167 1.02701C181.338 1.02701 183.907 3.43932 183.907 6.41622V44.9106C183.907 47.8875 181.338 50.2998 178.167 50.2998H7.33369C4.16303 50.2998 1.5937 47.8875 1.5937 44.9106V6.41622C1.5937 3.43932 4.16303 1.02701 7.33369 1.02701H178.167ZM178.167 0.000488281H7.33369C3.57536 0.000488281 0.500366 2.88757 0.500366 6.41622V44.9106C0.500366 48.4392 3.57536 51.3263 7.33369 51.3263H178.167C181.925 51.3263 185 48.4392 185 44.9106V6.41622C185 2.88757 181.925 0.000488281 178.167 0.000488281Z" fill="white"/>
<path d="M65.3076 13.1406C65.3076 14.2185 64.9659 15.0782 64.2826 15.7069C63.5173 16.464 62.506 16.8489 61.276 16.8489C60.087 16.8489 59.0893 16.464 58.2556 15.6941C57.422 14.9242 57.012 13.9618 57.012 12.8327C57.012 11.6907 57.422 10.7411 58.2556 9.97124C59.0893 9.20135 60.087 8.81641 61.276 8.81641C61.8636 8.81641 62.424 8.91906 62.957 9.13719C63.49 9.35533 63.9136 9.63762 64.2416 9.9969L63.5173 10.677C62.9706 10.0739 62.2326 9.76594 61.276 9.76594C60.415 9.76594 59.6633 10.0482 59.0346 10.6256C58.406 11.1902 58.0916 11.9345 58.0916 12.8455C58.0916 13.7565 58.406 14.5008 59.0346 15.0653C59.6633 15.6299 60.415 15.925 61.276 15.925C62.1916 15.925 62.957 15.6428 63.572 15.0653C63.9683 14.6932 64.2006 14.1671 64.2553 13.4999H61.276V12.5632H65.253C65.2803 12.7685 65.3076 12.961 65.3076 13.1406Z" fill="white" stroke="white" stroke-width="0.256629" stroke-miterlimit="10"/>
<path d="M71.6077 9.93293H67.8766V12.3709H71.2387V13.2948H67.8766V15.7327H71.6077V16.6823H66.8243V8.9834H71.6077V9.93293Z" fill="white" stroke="white" stroke-width="0.256629" stroke-miterlimit="10"/>
<path d="M76.0491 16.6823H74.9967V9.93293H72.7007V8.9834H78.3314V9.93293H76.0354V16.6823H76.0491Z" fill="white" stroke="white" stroke-width="0.256629" stroke-miterlimit="10"/>
<path d="M82.4175 16.6823V8.9834H83.4697V16.6823H82.4175Z" fill="white" stroke="white" stroke-width="0.256629" stroke-miterlimit="10"/>
<path d="M88.1448 16.6823H87.0925V9.93293H84.7964V8.9834H90.4271V9.93293H88.1311V16.6823H88.1448Z" fill="white" stroke="white" stroke-width="0.256629" stroke-miterlimit="10"/>
<path d="M101.1 15.6808C100.294 16.4635 99.2961 16.8484 98.0934 16.8484C96.8908 16.8484 95.8931 16.4635 95.0868 15.6808C94.2805 14.898 93.8842 13.9485 93.8842 12.8322C93.8842 11.7158 94.2805 10.7535 95.0868 9.98358C95.8931 9.20086 96.8908 8.81592 98.0934 8.81592C99.2824 8.81592 100.28 9.20086 101.1 9.98358C101.906 10.7663 102.316 11.7158 102.316 12.8322C102.303 13.9613 101.906 14.9109 101.1 15.6808ZM95.8658 15.0392C96.4671 15.6166 97.2188 15.8989 98.0934 15.8989C98.9681 15.8989 99.7198 15.6166 100.321 15.0392C100.922 14.4618 101.237 13.7304 101.237 12.8322C101.237 11.934 100.936 11.2026 100.321 10.6252C99.7198 10.0477 98.9681 9.75262 98.0934 9.75262C97.2188 9.75262 96.4671 10.0349 95.8658 10.6123C95.2645 11.2026 94.9501 11.934 94.9501 12.8322C94.9501 13.7304 95.2645 14.4618 95.8658 15.0392Z" fill="white" stroke="white" stroke-width="0.256629" stroke-miterlimit="10"/>
<path d="M103.793 16.6823V8.9834H105.078L109.068 14.9757H109.109L109.068 13.4872V8.9834H110.121V16.6823H109.027L104.859 10.4077H104.818L104.859 11.8961V16.6823H103.793Z" fill="white" stroke="white" stroke-width="0.256629" stroke-miterlimit="10"/>
<path d="M93.6249 27.9087C90.4133 27.9087 87.7893 30.2056 87.7893 33.3621C87.7893 36.5058 90.4133 38.8155 93.6249 38.8155C96.8366 38.8155 99.4606 36.5058 99.4606 33.3621C99.4606 30.2056 96.8366 27.9087 93.6249 27.9087ZM93.6249 36.6726C91.8619 36.6726 90.3449 35.3125 90.3449 33.3621C90.3449 31.3989 91.8619 30.0516 93.6249 30.0516C95.3879 30.0516 96.9049 31.3989 96.9049 33.3621C96.9049 35.3125 95.3743 36.6726 93.6249 36.6726ZM80.8876 27.9087C77.676 27.9087 75.052 30.2056 75.052 33.3621C75.052 36.5058 77.676 38.8155 80.8876 38.8155C84.0993 38.8155 86.7233 36.5058 86.7233 33.3621C86.7233 30.2056 84.0993 27.9087 80.8876 27.9087ZM80.8876 36.6726C79.1246 36.6726 77.6076 35.3125 77.6076 33.3621C77.6076 31.3989 79.1246 30.0516 80.8876 30.0516C82.6506 30.0516 84.1676 31.3989 84.1676 33.3621C84.1676 35.3125 82.6506 36.6726 80.8876 36.6726ZM65.745 29.5896V31.8993H71.649C71.4713 33.1953 71.0067 34.1577 70.3097 34.8121C69.4487 35.6204 68.1093 36.5058 65.7587 36.5058C62.1234 36.5058 59.2807 33.7599 59.2807 30.3467C59.2807 26.9335 62.1234 24.1876 65.7587 24.1876C67.713 24.1876 69.148 24.9062 70.2003 25.8429L71.936 24.2133C70.46 22.8916 68.5057 21.8779 65.745 21.8779C60.7704 21.8779 56.5884 25.676 56.5884 30.3595C56.5884 35.0302 60.7704 38.8411 65.745 38.8411C68.4373 38.8411 70.46 38.0199 72.0453 36.4673C73.6717 34.9404 74.1773 32.7847 74.1773 31.0524C74.1773 30.5135 74.1363 30.0131 74.0407 29.6025H65.745V29.5896ZM127.668 31.3861C127.19 30.1671 125.714 27.9087 122.694 27.9087C119.701 27.9087 117.214 30.1157 117.214 33.3621C117.214 36.416 119.674 38.8155 122.981 38.8155C125.646 38.8155 127.19 37.2885 127.819 36.4032L125.837 35.1585C125.181 36.0695 124.279 36.6726 122.981 36.6726C121.683 36.6726 120.753 36.108 120.166 35.0174L127.942 32.002L127.668 31.3861ZM119.742 33.2081C119.674 31.1038 121.478 30.0259 122.776 30.0259C123.787 30.0259 124.648 30.5007 124.935 31.1808L119.742 33.2081ZM113.428 38.4947H115.984V22.4553H113.428V38.4947ZM109.246 29.1277H109.15C108.576 28.4861 107.483 27.9087 106.089 27.9087C103.178 27.9087 100.513 30.3082 100.513 33.3878C100.513 36.4417 103.178 38.8283 106.089 38.8283C107.469 38.8283 108.576 38.2509 109.15 37.5837H109.232V38.3664C109.232 40.4579 108.043 41.5743 106.13 41.5743C104.572 41.5743 103.602 40.5221 103.205 39.6367L100.978 40.5092C101.62 41.9592 103.315 43.7299 106.13 43.7299C109.123 43.7299 111.651 42.0747 111.651 38.0456V28.2423H109.232V29.1277H109.246ZM106.308 36.6726C104.545 36.6726 103.069 35.2868 103.069 33.3878C103.069 31.463 104.545 30.0644 106.308 30.0644C108.043 30.0644 109.41 31.4759 109.41 33.3878C109.424 35.2868 108.057 36.6726 106.308 36.6726ZM139.64 22.4553H133.531V38.4947H136.087V32.4126H139.654C142.483 32.4126 145.257 30.4879 145.257 27.434C145.257 24.3801 142.456 22.4553 139.64 22.4553ZM139.695 30.1799H136.073V24.6752H139.695C141.608 24.6752 142.688 26.1636 142.688 27.4211C142.688 28.6786 141.608 30.1799 139.695 30.1799ZM155.466 27.8831C153.621 27.8831 151.708 28.653 150.915 30.3339L153.184 31.2192C153.662 30.3339 154.564 30.0388 155.507 30.0388C156.833 30.0388 158.172 30.783 158.186 32.1046V32.2714C157.721 32.0276 156.737 31.6555 155.521 31.6555C153.075 31.6555 150.601 32.913 150.601 35.2612C150.601 37.404 152.596 38.7898 154.838 38.7898C156.546 38.7898 157.503 38.0713 158.09 37.2244H158.172V38.469H160.632V32.3228C160.646 29.4742 158.377 27.8831 155.466 27.8831ZM155.152 36.6726C154.318 36.6726 153.157 36.2749 153.157 35.3125C153.157 34.0807 154.605 33.6059 155.863 33.6059C156.983 33.6059 157.516 33.8369 158.186 34.1448C157.995 35.6204 156.628 36.6726 155.152 36.6726ZM169.611 28.2295L166.687 35.1842H166.605L163.571 28.2295H160.824L165.375 37.9558L162.778 43.3578H165.443L172.454 28.2295H169.611ZM146.651 38.4947H149.207V22.4553H146.651V38.4947Z" fill="white"/>
<path d="M14.7684 9.67527C14.372 10.073 14.1397 10.689 14.1397 11.4717V39.8549C14.1397 40.6505 14.372 41.2664 14.7684 41.6513L14.864 41.7412L31.7971 25.8558V25.6633V25.4708L14.864 9.58545L14.7684 9.67527Z" fill="url(#paint0_linear_1_758)"/>
<path d="M37.4432 31.1552L31.7988 25.8558V25.6633V25.4708L37.4432 20.1714L37.5662 20.2355L44.2493 23.8027C46.1626 24.8164 46.1626 26.4845 44.2493 27.511L37.5662 31.0782L37.4432 31.1552Z" fill="url(#paint1_linear_1_758)"/>
<path d="M37.5654 31.0913L31.7981 25.6636L14.7695 41.6516C15.3981 42.2803 16.4368 42.3573 17.6121 41.7286L37.5654 31.0913Z" fill="url(#paint2_linear_1_758)"/>
<path d="M37.5649 20.2485L17.598 9.5984C16.4227 8.96966 15.384 9.04665 14.7554 9.67539L31.7976 25.6634L37.5649 20.2485Z" fill="url(#paint3_linear_1_758)"/>
<path opacity="0.2" d="M37.4412 30.9629L17.5973 41.5488C16.4903 42.1391 15.4926 42.1006 14.864 41.5617L14.7683 41.6515L14.864 41.7413C15.5063 42.2802 16.4903 42.3187 17.5973 41.7285L37.5642 31.0784L37.4412 30.9629Z" fill="black"/>
<path opacity="0.12" d="M14.7673 41.4717C14.3709 41.0739 14.1385 40.458 14.1385 39.6753V39.8678C14.1385 40.6633 14.3709 41.2792 14.7673 41.6642L14.863 41.5743L14.7673 41.4717Z" fill="black"/>
<path opacity="0.12" d="M44.2487 27.3317L37.429 30.9629L37.552 31.0784L44.235 27.5113C45.1917 26.998 45.67 26.3308 45.67 25.6636C45.6017 26.2666 45.1233 26.8697 44.2487 27.3317Z" fill="black"/>
<path opacity="0.25" d="M17.5981 9.77903L44.2481 23.9963C45.1091 24.4582 45.6011 25.0485 45.6831 25.6644C45.6831 24.9971 45.2048 24.3171 44.2481 23.8167L17.5981 9.59939C15.6847 8.58571 14.1267 9.43258 14.1267 11.4856V11.6781C14.1267 9.61223 15.6984 8.76535 17.5981 9.77903Z" fill="white"/>
<defs>
<linearGradient id="paint0_linear_1_758" x1="30.2932" y1="11.1763" x2="8.80161" y2="34.0667" gradientUnits="userSpaceOnUse">
<stop stop-color="#00A0FF"/>
<stop offset="0.00657445" stop-color="#00A1FF"/>
<stop offset="0.2601" stop-color="#00BEFF"/>
<stop offset="0.5122" stop-color="#00D2FF"/>
<stop offset="0.7604" stop-color="#00DFFF"/>
<stop offset="1" stop-color="#00E3FF"/>
</linearGradient>
<linearGradient id="paint1_linear_1_758" x1="46.7425" y1="25.6652" x2="13.6731" y2="25.6652" gradientUnits="userSpaceOnUse">
<stop stop-color="#FFE000"/>
<stop offset="0.4087" stop-color="#FFBD00"/>
<stop offset="0.7754" stop-color="#FFA500"/>
<stop offset="1" stop-color="#FF9C00"/>
</linearGradient>
<linearGradient id="paint2_linear_1_758" x1="34.4315" y1="28.6099" x2="5.28718" y2="59.6511" gradientUnits="userSpaceOnUse">
<stop stop-color="#FF3A44"/>
<stop offset="1" stop-color="#C31162"/>
</linearGradient>
<linearGradient id="paint3_linear_1_758" x1="10.4739" y1="0.226677" x2="23.4881" y2="14.0878" gradientUnits="userSpaceOnUse">
<stop stop-color="#32A071"/>
<stop offset="0.0685" stop-color="#2DA771"/>
<stop offset="0.4762" stop-color="#15CF74"/>
<stop offset="0.8009" stop-color="#06E775"/>
<stop offset="1" stop-color="#00F076"/>
</linearGradient>
</defs>
</svg>
